<svg width="56" height="56" viewBox="0 0 56 56" fill="none" xmlns="http://www.w3.org/2000/svg">
<path d="M28 1C35.4558 1 42.2057 4.0222 47.0918 8.90825C51.9779 13.7944 55 20.5443 55 28.0001C55 35.4558 51.9779 42.2057 47.0918 47.0918C42.2057 51.978 35.4558 55 28 55C20.5443 55 13.7944 51.978 8.90825 47.0918C4.02213 42.2057 1 35.4558 1 28.0001C1 20.5443 4.02213 13.7944 8.90825 8.90825C13.7944 4.0222 20.5443 1 28 1V1ZM45.0948 10.9053C40.7199 6.53049 34.6761 3.82456 28 3.82456C21.324 3.82456 15.2801 6.53049 10.9053 10.9053C6.53043 15.2802 3.82456 21.324 3.82456 28.0001C3.82456 34.676 6.53043 40.72 10.9053 45.0948C15.2801 49.4697 21.324 52.1754 28 52.1754C34.6761 52.1754 40.7199 49.4697 45.0948 45.0948C49.4696 40.72 52.1754 34.676 52.1754 28.0001C52.1754 21.324 49.4696 15.2802 45.0948 10.9053V10.9053Z" fill="url(#paint0_linear)" stroke="#FECC00" stroke-width="0.2" stroke-miterlimit="22.9256"/>
<path fill-rule="evenodd" clip-rule="evenodd" d="M52.296 22.136C52.1627 21.6384 52.458 21.1271 52.9554 20.9938C53.4529 20.8605 53.9643 21.1558 54.0975 21.6532C54.2308 22.1507 53.9356 22.6621 53.4381 22.7954C52.9406 22.9287 52.4294 22.6334 52.296 22.136ZM2.92163 35.3657C2.78836 34.8683 3.0836 34.3569 3.58109 34.2237C4.07854 34.0904 4.5899 34.3856 4.72317 34.883C4.85644 35.3805 4.5613 35.8919 4.06378 36.0251C3.56629 36.1584 3.055 35.8633 2.92163 35.3657ZM49.8359 16.1967C49.5784 15.7507 49.7312 15.1804 50.1773 14.9229C50.6233 14.6654 51.1936 14.8182 51.4511 15.2642C51.7087 15.7102 51.5558 16.2806 51.1098 16.538C50.6638 16.7956 50.0935 16.6427 49.8359 16.1967ZM5.56808 41.7547C5.31059 41.3088 5.46338 40.7384 5.90942 40.4808C6.35539 40.2234 6.92578 40.3762 7.18324 40.8222C7.4408 41.2683 7.28801 41.8385 6.84197 42.0961C6.39593 42.3536 5.82561 42.2008 5.56808 41.7547ZM45.9225 11.0966C45.5583 10.7325 45.5583 10.142 45.9225 9.77778C46.2867 9.41369 46.8771 9.41369 47.2412 9.77778C47.6055 10.142 47.6055 10.7325 47.2412 11.0966C46.8771 11.4608 46.2866 11.4608 45.9225 11.0966ZM9.77795 47.2412C9.41379 46.8769 9.41379 46.2866 9.77795 45.9223C10.1421 45.5581 10.7325 45.5581 11.0967 45.9223C11.4609 46.2866 11.4609 46.8769 11.0967 47.2412C10.7325 47.6053 10.1421 47.6053 9.77795 47.2412ZM40.8224 7.18325C40.3763 6.92572 40.2235 6.35533 40.481 5.90936C40.7386 5.46332 41.3089 5.31047 41.7549 5.56799C42.2009 5.82555 42.3538 6.39587 42.0962 6.84188C41.8387 7.28785 41.2683 7.44067 40.8224 7.18325V7.18325ZM15.2643 51.451C14.8183 51.1934 14.6655 50.6232 14.923 50.1772C15.1805 49.7311 15.7508 49.5783 16.1968 49.8357C16.6428 50.0933 16.7957 50.6636 16.5381 51.1097C16.2807 51.5557 15.7104 51.7084 15.2643 51.451ZM34.8832 4.72311C34.3857 4.58984 34.0904 4.07839 34.2238 3.58103C34.357 3.08348 34.8684 2.78837 35.3658 2.92164C35.8634 3.05494 36.1586 3.5663 36.0252 4.06372C35.892 4.56121 35.3806 4.85638 34.8832 4.72311ZM21.6533 54.0974C21.1559 53.9641 20.8607 53.4527 20.9939 52.9553C21.1272 52.4578 21.6386 52.1625 22.1361 52.2959C22.6335 52.4292 22.9287 52.9405 22.7955 53.438C22.6622 53.9354 22.1508 54.2306 21.6533 54.0974ZM28.5096 53.135C29.0247 53.135 29.4421 53.5525 29.4421 54.0675C29.4421 54.5825 29.0247 55.0001 28.5096 55.0001C27.9946 55.0001 27.5771 54.5825 27.5771 54.0675C27.5771 53.5525 27.9946 53.135 28.5096 53.135ZM28.5096 2.01892C29.0247 2.01892 29.4421 2.43649 29.4421 2.95144C29.4421 3.46645 29.0247 3.88395 28.5096 3.88395C27.9946 3.88395 27.5771 3.46645 27.5771 2.95144C27.5771 2.43649 27.9946 2.01892 28.5096 2.01892ZM34.8832 52.2959C35.3806 52.1625 35.892 52.4578 36.0252 52.9553C36.1586 53.4527 35.8634 53.9641 35.3658 54.0974C34.8684 54.2307 34.357 53.9354 34.2238 53.438C34.0904 52.9405 34.3857 52.4292 34.8832 52.2959ZM21.6533 2.92164C22.1508 2.78824 22.6622 3.08348 22.7955 3.58103C22.9287 4.07839 22.6335 4.58984 22.1361 4.72311C21.6386 4.85638 21.1272 4.56121 20.9939 4.06372C20.8607 3.5663 21.1559 3.05494 21.6533 2.92164V2.92164ZM40.8224 49.8357C41.2683 49.5783 41.8387 49.7311 42.0962 50.1772C42.3538 50.6232 42.2009 51.1934 41.7549 51.451C41.3089 51.7084 40.7386 51.5557 40.481 51.1097C40.2235 50.6636 40.3763 50.0933 40.8224 49.8357V49.8357ZM15.2643 5.56799C15.7104 5.31047 16.2807 5.46332 16.5381 5.90936C16.7957 6.35533 16.6429 6.92572 16.1968 7.18325C15.7508 7.44067 15.1805 7.28785 14.923 6.84188C14.6655 6.39587 14.8183 5.82555 15.2643 5.56799ZM45.9225 45.9223C46.2866 45.5581 46.8771 45.5581 47.2412 45.9223C47.6055 46.2866 47.6054 46.8769 47.2413 47.2412C46.8771 47.6053 46.2866 47.6053 45.9225 47.2412C45.5583 46.8769 45.5583 46.2866 45.9225 45.9223ZM9.77795 9.77778C10.1421 9.41369 10.7325 9.41369 11.0967 9.77778C11.4609 10.142 11.4609 10.7325 11.0967 11.0966C10.7325 11.4608 10.1421 11.4608 9.77795 11.0966C9.41379 10.7325 9.41379 10.142 9.77795 9.77778ZM49.8359 40.8222C50.0935 40.3762 50.6638 40.2234 51.1098 40.4808C51.5558 40.7384 51.7087 41.3088 51.4511 41.7547C51.1936 42.2008 50.6233 42.3536 50.1773 42.0961C49.7312 41.8385 49.5784 41.2683 49.8359 40.8222ZM5.56808 15.2642C5.82561 14.8182 6.39593 14.6654 6.84197 14.9229C7.28801 15.1804 7.4408 15.7507 7.18324 16.1967C6.92578 16.6427 6.35539 16.7956 5.90942 16.538C5.46338 16.2806 5.31059 15.7102 5.56808 15.2642ZM52.296 34.883C52.4294 34.3856 52.9406 34.0904 53.4381 34.2237C53.9356 34.3569 54.2308 34.8683 54.0975 35.3657C53.9643 35.8633 53.4529 36.1584 52.9554 36.0251C52.458 35.8919 52.1627 35.3805 52.296 34.883V34.883ZM2.92163 21.6532C3.055 21.1558 3.56635 20.8605 4.06378 20.9938C4.5613 21.1271 4.85644 21.6384 4.72317 22.136C4.5899 22.6334 4.07854 22.9287 3.58109 22.7954C3.0836 22.6621 2.78836 22.1507 2.92163 21.6532ZM53.1351 28.5095C53.1351 27.9944 53.5526 27.577 54.0677 27.577C54.5826 27.577 55.0002 27.9944 55.0002 28.5095C55.0002 29.0245 54.5826 29.442 54.0677 29.442C53.5526 29.442 53.1351 29.0245 53.1351 28.5095ZM2.01904 28.5095C2.01904 27.9944 2.43654 27.577 2.95156 27.577C3.46661 27.577 3.88408 27.9944 3.88408 28.5095C3.88408 29.0245 3.46661 29.442 2.95156 29.442C2.43654 29.442 2.01904 29.0245 2.01904 28.5095Z" fill="white"/>
<path fill-rule="evenodd" clip-rule="evenodd" d="M11.8565 20.9494C11.8565 20.8122 11.7922 20.7083 11.6638 20.6375C11.5354 20.5667 11.376 20.5048 11.1858 20.4516C10.9956 20.3983 10.7893 20.3462 10.5669 20.2953C10.3446 20.2442 10.1383 20.1701 9.94806 20.0727C9.75789 19.9752 9.59847 19.8468 9.47009 19.6876C9.34161 19.5282 9.2774 19.3136 9.2774 19.0438C9.2774 18.8136 9.32313 18.6081 9.41447 18.4269C9.50592 18.2457 9.6344 18.0931 9.79989 17.9688C9.96541 17.8444 10.1654 17.7453 10.4002 17.6717C10.6349 17.5978 10.893 17.5512 11.1746 17.5317C11.5008 17.5092 11.8107 17.513 12.1048 17.5436C12.3988 17.5742 12.6396 17.6295 12.8274 17.7092L12.479 18.5565C12.4197 18.5296 12.3444 18.5028 12.253 18.4759C12.1615 18.449 12.0566 18.4275 11.938 18.4115C11.8195 18.3954 11.6934 18.3841 11.5601 18.3778C11.4267 18.3716 11.2908 18.3732 11.1524 18.3828C10.9053 18.4 10.7139 18.452 10.5781 18.5389C10.4422 18.6256 10.3742 18.7377 10.3742 18.8748C10.3742 19.012 10.4384 19.1171 10.5669 19.1902C10.6954 19.263 10.8547 19.3272 11.045 19.3827C11.2352 19.438 11.4415 19.4925 11.6638 19.5455C11.8861 19.5988 12.0925 19.673 12.2826 19.7682C12.4729 19.8635 12.6322 19.9885 12.7607 20.1435C12.8891 20.2981 12.9534 20.5039 12.9534 20.7606C12.9534 21.0173 12.9039 21.242 12.8051 21.4348C12.7063 21.6273 12.5667 21.7909 12.3864 21.925C12.206 22.0592 11.9898 22.1638 11.7379 22.2387C11.4859 22.3137 11.2092 22.3617 10.9078 22.3825C10.7053 22.3965 10.5139 22.3998 10.3335 22.3924C10.1531 22.385 9.98634 22.3723 9.8332 22.354C9.68006 22.336 9.5454 22.3143 9.42937 22.2891C9.31323 22.2639 9.22057 22.2383 9.15137 22.2121L9.51454 21.3571C9.56889 21.38 9.6442 21.4035 9.74058 21.4279C9.83692 21.4522 9.94444 21.4746 10.063 21.4952C10.1815 21.5158 10.3088 21.5301 10.4446 21.5384C10.5805 21.5468 10.7176 21.546 10.856 21.5365C11.1821 21.514 11.4303 21.4546 11.6008 21.3588C11.7713 21.2629 11.8565 21.1264 11.8565 20.9494V20.9494ZM25.545 19.1851L25.6487 20.0009L25.6784 19.999L25.797 19.1543L26.7827 16.5437L27.4941 16.4945L28.4651 18.9828L28.5836 19.7978L28.6206 19.7951L28.7318 18.951L29.421 16.361L30.5476 16.283L28.9912 21.0705L28.2501 21.1218L27.2421 18.6626L27.1087 17.9549L27.0568 17.9585L26.9235 18.6913L25.9229 21.283L25.1448 21.337L23.5958 16.7645L24.7965 16.6813L25.545 19.1851V19.1851ZM16.859 19.9592L14.7839 20.1029V22.0211L13.687 22.0971V17.4506L14.7839 17.3747V19.2399L16.859 19.0963V17.2309L17.9559 17.155V21.8016L16.859 21.8775V19.9592ZM18.734 19.4243C18.734 19.0439 18.7885 18.6993 18.8971 18.3909C19.0059 18.0824 19.1627 17.8182 19.3678 17.5981C19.5728 17.3782 19.8235 17.2039 20.1199 17.0749C20.4164 16.946 20.7524 16.8684 21.1279 16.8424C21.5281 16.8147 21.8776 16.8491 22.1766 16.9456C22.4755 17.0423 22.725 17.1898 22.9251 17.3883C23.1252 17.587 23.276 17.8309 23.3772 18.1204C23.4785 18.4098 23.5291 18.7339 23.5291 19.0923C23.5291 19.4728 23.4736 19.8175 23.3623 20.1261C23.2512 20.4348 23.0919 20.6991 22.8844 20.9192C22.6769 21.1394 22.4249 21.314 22.1284 21.4429C21.832 21.5719 21.4985 21.6491 21.1279 21.6748C20.7276 21.7024 20.3782 21.668 20.0792 21.5716C19.7803 21.475 19.5307 21.3274 19.3307 21.1289C19.1306 20.9303 18.9811 20.6862 18.8823 20.3964C18.7835 20.1069 18.734 19.7828 18.734 19.4243V19.4243ZM19.8977 19.3438C19.8977 19.5738 19.9223 19.7824 19.9717 19.9693C20.0212 20.1561 20.0953 20.3147 20.1941 20.4451C20.2929 20.5753 20.4202 20.6727 20.5758 20.7372C20.7314 20.8016 20.9155 20.8267 21.1279 20.8119C21.5183 20.7849 21.8221 20.6443 22.0395 20.3903C22.2569 20.1363 22.3656 19.7306 22.3656 19.1729C22.3656 18.9516 22.3434 18.7474 22.2989 18.5601C22.2544 18.373 22.1815 18.2131 22.0802 18.0808C21.979 17.9484 21.8505 17.8489 21.6948 17.7823C21.5392 17.7156 21.3502 17.6899 21.1279 17.7054C20.7425 17.732 20.4411 17.8768 20.2237 18.1396C20.0064 18.4025 19.8977 18.8039 19.8977 19.3438V19.3438Z" fill="#FBEE45"/>
<path fill-rule="evenodd" clip-rule="evenodd" d="M47.2506 9.77293L51.9434 10.1699L47.2506 10.5667L46.7762 10.998L46.3396 15.2642L45.903 10.998L45.4286 10.5667L40.7358 10.1699L45.4286 9.77293L45.903 9.34171L46.3396 5.0755L46.7762 9.34171L47.2506 9.77293Z" fill="white"/>
<path fill-rule="evenodd" clip-rule="evenodd" d="M10.9977 45.903L15.2639 46.3396L10.9977 46.7762L10.5664 47.2506L10.1695 51.9434L9.77262 47.2506L9.34137 46.7762L5.0752 46.3396L9.34137 45.903L9.77262 45.4286L10.1695 40.7358L10.5664 45.4286L10.9977 45.903V45.903Z" fill="white"/>
<path fill-rule="evenodd" clip-rule="evenodd" d="M24.1753 35.9117C25.167 35.8324 26.1546 35.7532 27.1503 35.6723C27.84 35.6171 28.4953 35.4252 28.9826 34.7415C29.4706 34.0571 29.7906 32.8825 29.7906 30.861C29.7906 30.7544 29.7865 30.648 29.7865 30.5415C29.7865 28.523 29.4669 27.3989 28.9785 26.7936C28.4916 26.1902 27.84 26.1008 27.1503 26.156C26.1586 26.2337 25.171 26.313 24.1835 26.3907C24.1835 27.9785 24.1794 29.5664 24.1794 31.1528C24.1794 32.7375 24.1794 34.3269 24.1753 35.9117V35.9117ZM27.1503 37.3771C25.9056 37.4778 24.6691 37.577 23.4367 37.6759C22.8613 37.7206 22.396 37.3078 22.396 36.7525C22.396 34.9336 22.3981 33.1146 22.4001 31.2956C22.4021 29.4767 22.4042 27.6563 22.4042 25.8373C22.4042 25.282 22.8735 24.7943 23.4448 24.7482C24.6772 24.6492 25.9097 24.5518 27.1503 24.4526C29.354 24.2763 30.4599 25.3752 31.0108 26.7102C31.5617 28.0454 31.5658 29.6212 31.5658 30.3985C31.5658 30.5066 31.5658 30.6131 31.5658 30.7196C31.5658 31.4986 31.563 33.0749 31.0149 34.4976C30.4652 35.9244 29.358 37.1977 27.1503 37.3771V37.3771Z" fill="#FBEE45"/>
<path fill-rule="evenodd" clip-rule="evenodd" d="M13.2043 38.5524C12.5326 38.6015 11.8608 38.6505 11.189 38.6981C11.1935 36.5299 11.1957 34.3466 11.1979 32.1574C11.2001 29.9711 11.2069 27.7818 11.2069 25.6001C11.8787 25.551 12.5549 25.5033 13.2267 25.4528C13.2223 27.636 13.2155 29.824 13.2133 32.0102C13.2111 34.198 13.2089 36.3813 13.2043 38.5524V38.5524Z" fill="#FBEE45"/>
<path fill-rule="evenodd" clip-rule="evenodd" d="M8.13184 26.054C11.1789 25.8534 14.2342 25.6526 17.3016 25.4528C17.2976 25.933 17.2976 26.4119 17.2976 26.8907C14.2342 27.0904 11.1749 27.2912 8.13184 27.4906C8.13184 27.0117 8.13184 26.5329 8.13184 26.054V26.054Z" fill="#FBEE45"/>
<path fill-rule="evenodd" clip-rule="evenodd" d="M34.6794 33.2635C34.9233 32.1541 35.1653 31.0428 35.407 29.934C35.6489 28.8242 35.8948 27.7169 36.1386 26.606C36.3866 27.6732 36.6304 28.7373 36.8784 29.8029C37.1263 30.8686 37.3702 31.9359 37.6181 33.0015C36.6304 33.0891 35.6549 33.1762 34.6794 33.2635ZM37.0491 23.4151C36.4353 23.4685 35.8257 23.5202 35.2241 23.5717C34.6103 25.9262 33.996 28.2775 33.3909 30.624C32.7847 32.975 32.1756 35.3263 31.5659 37.6793C32.1593 37.6296 32.7487 37.5768 33.3422 37.5255C33.5739 36.8777 33.8015 36.23 34.0332 35.579C35.4436 35.4576 36.854 35.3378 38.2685 35.2147C38.5002 35.8259 38.7319 36.434 38.9676 37.042C39.5529 36.9925 40.1423 36.9398 40.7357 36.8885C40.1179 34.6409 39.4999 32.3981 38.8904 30.1566C38.2805 27.9137 37.6669 25.6659 37.0491 23.4151V23.4151Z" fill="#FBEE45"/>
<path fill-rule="evenodd" clip-rule="evenodd" d="M26.9347 34.52C26.4381 34.5553 25.9461 34.5889 25.4541 34.6227C25.4541 33.4537 25.4519 32.2806 25.4541 31.1088C25.4564 29.9384 25.4587 28.7652 25.4587 27.5919C25.9507 27.5583 26.4427 27.526 26.9392 27.4922C27.2416 27.4713 27.4899 27.656 27.4899 27.905C27.4899 28.9266 27.4921 29.9481 27.4899 30.9682C27.4876 31.9898 27.4853 33.0114 27.4853 34.0314C27.4853 34.279 27.2416 34.499 26.9347 34.52V34.52Z" fill="#FBEE45"/>
<path fill-rule="evenodd" clip-rule="evenodd" d="M18.3313 36.8086C17.6825 36.8631 17.1601 36.3868 17.1601 35.743C17.1601 35.1023 17.6867 34.5351 18.3355 34.4822C18.9717 34.428 19.4899 34.9044 19.4899 35.5467C19.4899 36.1905 18.9717 36.7544 18.3313 36.8086ZM18.3355 32.5959C16.6377 32.7381 15.2642 34.221 15.2642 35.9035C15.26 37.586 16.6292 38.8293 18.3271 38.687C20.0081 38.5484 21.3774 37.0705 21.3774 35.3864C21.3816 33.7054 20.0165 32.454 18.3355 32.5959Z" fill="#FBEE45"/>
<path fill-rule="evenodd" clip-rule="evenodd" d="M18.3376 25.4616C18.3376 25.9855 18.3334 26.5082 18.3334 27.0294C18.9742 26.9842 19.4928 27.3809 19.4928 27.9183C19.4886 28.4544 18.9701 28.9239 18.3292 28.9691C17.6842 29.0116 17.1572 28.6152 17.1614 28.079C16.5248 28.1241 15.8924 28.1677 15.2642 28.2113C15.26 29.6148 16.6301 30.6553 18.3292 30.5382C20.0114 30.4201 21.3774 29.1897 21.3774 27.7863C21.3816 26.3867 20.0156 25.3462 18.3376 25.4616V25.4616Z" fill="#FBEE45"/>
<path fill-rule="evenodd" clip-rule="evenodd" d="M47.8682 22.3962C47.3051 22.4516 46.7456 22.5053 46.1934 22.5588C45.7839 23.7926 45.3704 25.0168 44.9647 26.2363C44.5586 27.4572 44.1456 28.6768 43.7434 29.8961C43.3375 28.754 42.9261 27.6113 42.522 26.4683C42.118 25.3253 41.7066 24.1796 41.3043 23.0277C40.7741 23.0789 40.2439 23.1285 39.7173 23.1781C40.2512 24.7361 40.7794 26.2906 41.3116 27.8397C41.8434 29.3877 42.3758 30.937 42.9133 32.4854C42.9133 33.1815 42.917 33.876 42.917 34.5705C42.917 35.2682 42.917 35.9644 42.9206 36.6604C42.9426 36.6598 42.9645 36.6575 42.9864 36.6552C43.4911 36.6079 43.9957 36.5576 44.5003 36.5088C44.5186 36.5082 44.5369 36.506 44.5552 36.5038C44.5552 35.8126 44.5552 35.1212 44.5552 34.4283C44.5552 33.7401 44.5516 33.0521 44.5516 32.3608C45.1 30.7043 45.6527 29.0465 46.2008 27.3931C46.7497 25.737 47.3051 24.0738 47.8682 22.3962V22.3962Z" fill="#F9F24E"/>
<defs>
<linearGradient id="paint0_linear" x1="87.9201" y1="46.4976" x2="82.4008" y2="-4.46402" gradientUnits="userSpaceOnUse">
<stop stop-color="#FECC09"/>
<stop offset="0.0392157" stop-color="#EBB30C"/>
<stop offset="0.0901961" stop-color="#FDE85F"/>
<stop offset="0.160784" stop-color="#FCC204"/>
<stop offset="0.34902" stop-color="#FFDD70"/>
<stop offset="0.458824" stop-color="#F29214"/>
<stop offset="0.588235" stop-color="#EFCD6B"/>
<stop offset="0.760784" stop-color="#FFD23C"/>
<stop offset="0.858824" stop-color="#FECF1A"/>
<stop offset="0.929412" stop-color="#FED87B"/>
<stop offset="1" stop-color="#D89910"/>
</linearGradient>
</defs>
</svg>
